<svg width="64" height="64" viewBox="0 0 64 64" xmlns="http://www.w3.org/2000/svg">
  <defs>
    <linearGradient id="bmGradient" x1="0%" y1="0%" x2="100%" y2="100%">
      <stop offset="0%" stop-color="#6366f1" />
      <stop offset="100%" stop-color="#0ea5e9" />
    </linearGradient>
    <linearGradient id="caseFlow" x1="0%" y1="0%" x2="0%" y2="100%">
      <stop offset="0%" stop-color="#ffffff" stop-opacity="0.9" />
      <stop offset="100%" stop-color="#e0f2fe" stop-opacity="0.9" />
    </linearGradient>
  </defs>
  <rect width="64" height="64" rx="18" fill="url(#bmGradient)" />
  <path d="M17 18h13c6 0 10 4 10 9s-4 9-10 9H23v10H17V18zm6 14h7c2.7 0 4.5-1.5 4.5-4.5S32.7 23 30 23h-7v9z" fill="url(#caseFlow)" />
  <path d="M35 46V18h6l8 14 8-14h6v28h-6V28l-8 13-8-13v18h-6z" fill="#f8fafc" />
</svg>
